<svg id="grid" xmlns="http://www.w3.org/2000/svg" viewBox="0 0 132.25 38.95"><defs><style>.cls-1{fill:none}.cls-2{fill:#fff}</style></defs><title>sig_logo_wit</title><path class="cls-1" d="M-25.51-20.98H0V4.53h-25.51zm25.51 0h34.02V4.53H0zm34.02 0h34.02V4.53H34.02z"/><path class="cls-1" d="M68.03-20.98h34.02V4.53H68.03z"/><path class="cls-1" d="M102.05-20.98h34.02V4.53h-34.02zM-25.51 4.53H0v34.02h-25.51zM0 4.53h34.02v34.02H0zm34.02 0h34.02v34.02H34.02z"/><path class="cls-1" d="M68.03 4.53h34.02v34.02H68.03z"/><path class="cls-1" d="M102.05 4.53h34.02v34.02h-34.02zM-25.51 38.54H0v25.51h-25.51zm25.51 0h34.02v25.51H0zm34.02 0h34.02v25.51H34.02z"/><path class="cls-1" d="M68.03 38.54h34.02v25.51H68.03z"/><path class="cls-1" d="M102.05 38.54h34.02v25.51h-34.02z"/><path class="cls-2" d="M56.23 9.9l1.86-7.08a25.48 25.48 0 0 0-9.54-1.69 28.37 28.37 0 0 0-7.24.93V9.5a27.51 27.51 0 0 1 7.44-1 22 22 0 0 1 7.48 1.4m-6.43 9.85V31a19.76 19.76 0 0 1-8.44 0v7.64a17 17 0 0 0 2.86.2c4.57 0 10.2-.55 13.77-1.86V19.75H49.8zM3.45 29.91l-1.79 7a23.78 23.78 0 0 0 9.7 2.06 23.12 23.12 0 0 0 7-.8v-7a13.89 13.89 0 0 1-6.48.94 22.64 22.64 0 0 1-8.41-2.2M18.34 8.29V1.46C8.6-.1 1.66 4.12 1.66 11.91c0 6.93 6.33 9.91 11.56 11.93a24.55 24.55 0 0 1 5.09 2.3v-7.95l-4-1.91c-2.21-1.06-4.27-2.36-4.27-4.62C10.1 10 11.11 8 15 8a17.6 17.6 0 0 1 3.37.3m7.26 4.7v25.54H34v-34A17.34 17.34 0 0 0 25.63 13m43.7-.59a5.77 5.77 0 0 1-1.44-.17L68 11a4.86 4.86 0 0 0 1.47.25 1 1 0 0 0 1.22-.93c0-1.35-3-.73-3-3 0-1.25 1-2.12 2.68-2.12a7.7 7.7 0 0 1 1.27.13l-.05 1.13a4.6 4.6 0 0 0-1.26-.19 1 1 0 0 0-1.18.85c0 1.26 3 .79 3 3 0 1.32-1.05 2.29-2.78 2.29m6.28-4.27a1.29 1.29 0 0 0-1.18 1.52c0 1.06.39 1.6 1.16 1.6s1.16-.53 1.16-1.58-.35-1.54-1.14-1.54m-.14 4.26c-1.47 0-2.42-.76-2.42-2.61A2.61 2.61 0 0 1 75.74 7c1.47 0 2.42.81 2.42 2.6a2.62 2.62 0 0 1-2.65 2.8m7.06-6.62a2 2 0 0 0-.65-.09.8.8 0 0 0-.84 1v.43h1.21v1h-1.21v4.18h-1.32V8.15h-.91v-1h.91V6.7a1.82 1.82 0 0 1 2.06-2.1 3.77 3.77 0 0 1 .84.08zm2.7 6.62c-1.15 0-1.5-.42-1.5-1.63V8.15h-.9v-1h.89V5.52l1.33-.35v2h1.26v1H85.1v2.27c0 .67.16.85.62.85a2.6 2.6 0 0 0 .65-.08v1.07a4.57 4.57 0 0 1-1.08.14m8.21-.12H92l-.7-2.3a11.68 11.68 0 0 1-.3-1.16c-.1.48-.22.88-.35 1.3L90 12.3h-1.39L87 7.12h1.46l.55 2c.14.51.28 1 .41 1.56a11.62 11.62 0 0 1 .38-1.5l.63-2h1.28l.64 2a14.82 14.82 0 0 1 .42 1.56 14.12 14.12 0 0 1 .36-1.5l.58-2h1.37zm5.14-2.3c-1.41 0-1.72.41-1.72.82a.54.54 0 0 0 .61.55 1.19 1.19 0 0 0 1.11-1.25V10zm.11 2.29a5.87 5.87 0 0 1 .05-.88 1.76 1.76 0 0 1-1.66 1A1.32 1.32 0 0 1 95.65 11c0-1.24 1.23-1.9 3-1.9v-.24c0-.54-.26-.82-1-.82a3.4 3.4 0 0 0-1.53.41L96 7.33A5.65 5.65 0 0 1 97.84 7c1.67 0 2.14.68 2.14 1.8v3.53h-1.24zm5.67-3.97c-1-.2-1.44.43-1.44 1.87v2.11h-1.33V7.12h1.26a6.81 6.81 0 0 1-.09 1A1.58 1.58 0 0 1 104.48 7zM107.5 8a1 1 0 0 0-1 1h1.91a.88.88 0 0 0-.9-1m2.18 1.94h-3.21a1.26 1.26 0 0 0 1.43 1.44 3.72 3.72 0 0 0 1.51-.32l.13 1a5.15 5.15 0 0 1-1.86.33c-1.65 0-2.56-.82-2.56-2.65 0-1.58.88-2.75 2.43-2.75a2.07 2.07 0 0 1 2.18 2.32 4.37 4.37 0 0 1 0 .6m-41.71 7.2h1.36v7.04h-1.36zm9.27 7.04v-3.29c0-.55-.12-.9-.62-.9a1.52 1.52 0 0 0-1.19 1.7v2.48h-1.31v-3.28c0-.51-.1-.9-.61-.9a1.53 1.53 0 0 0-1.19 1.7v2.48H71V19h1.3a6.13 6.13 0 0 1-.07.93 1.86 1.86 0 0 1 1.71-1 1.34 1.34 0 0 1 1.43 1 1.84 1.84 0 0 1 1.69-1 1.46 1.46 0 0 1 1.55 1.73v3.57H77.3zM82.73 20c-.7 0-1.12.81-1.12 1.7v1.44a2.34 2.34 0 0 0 .7.09c.75 0 1.3-.48 1.3-1.76 0-1-.28-1.47-.89-1.47m-.45 4.26a4.53 4.53 0 0 1-.67 0v2.48h-1.32V19h1.24a6.17 6.17 0 0 1-.05.87 1.69 1.69 0 0 1 1.63-1c1.23 0 1.9.89 1.9 2.42 0 1.8-.94 2.94-2.73 2.94m6.82-4.07c-1-.2-1.44.43-1.44 1.87v2.12h-1.33V19h1.26a6.81 6.81 0 0 1-.09 1 1.58 1.58 0 0 1 1.65-1.16zm3.2-.16a1.29 1.29 0 0 0-1.18 1.52c0 1.06.39 1.6 1.16 1.6s1.16-.53 1.16-1.58S93.07 20 92.29 20m-.14 4.26c-1.47 0-2.42-.76-2.42-2.61a2.61 2.61 0 0 1 2.65-2.78c1.47 0 2.42.81 2.42 2.6a2.62 2.62 0 0 1-2.65 2.8m6.41-.12H97.2L95.28 19h1.46l.82 2.34c.13.35.25.77.34 1.15a11.08 11.08 0 0 1 .31-1.1l.87-2.39h1.42zm4.73-4.32a1 1 0 0 0-1 1h1.91a.88.88 0 0 0-.9-1m2.18 1.94h-3.21a1.26 1.26 0 0 0 1.43 1.44 3.72 3.72 0 0 0 1.51-.32l.13 1a5.15 5.15 0 0 1-1.86.33c-1.65 0-2.56-.82-2.56-2.65 0-1.58.88-2.75 2.43-2.75a2.07 2.07 0 0 1 2.18 2.32 4.37 4.37 0 0 1 0 .6m7.56 2.41v-3.29c0-.55-.12-.9-.62-.9a1.52 1.52 0 0 0-1.19 1.7v2.48H110v-3.28c0-.51-.1-.9-.61-.9a1.53 1.53 0 0 0-1.19 1.7v2.48h-1.33V19h1.26a6.13 6.13 0 0 1-.07.93 1.86 1.86 0 0 1 1.71-1 1.34 1.34 0 0 1 1.43 1 1.84 1.84 0 0 1 1.69-1 1.46 1.46 0 0 1 1.55 1.73v3.57h-1.33zm5.01-4.32a1 1 0 0 0-1 1h1.9a.88.88 0 0 0-.9-1m2.18 1.94h-3.21a1.26 1.26 0 0 0 1.43 1.44 3.72 3.72 0 0 0 1.51-.32l.13 1a5.15 5.15 0 0 1-1.86.33c-1.65 0-2.56-.82-2.56-2.65 0-1.58.88-2.75 2.43-2.75a2.07 2.07 0 0 1 2.18 2.32 4.37 4.37 0 0 1 0 .6m4.49 2.41v-3.32c0-.54-.15-.87-.64-.87a1.51 1.51 0 0 0-1.18 1.69v2.5h-1.34V19h1.26a5.72 5.72 0 0 1-.07.92 1.89 1.89 0 0 1 1.76-1 1.44 1.44 0 0 1 1.54 1.66v3.64h-1.32zm4.67.1c-1.15 0-1.5-.42-1.5-1.63V20h-.9v-1h.91v-1.6l1.33-.35v2h1.26v1h-1.26v2.27c0 .67.16.85.62.85a2.6 2.6 0 0 0 .65-.08v1.07a4.57 4.57 0 0 1-1.08.14M73.4 30.42a5.21 5.21 0 0 0-1.87-.35 2.26 2.26 0 0 0-2.39 2.45 2.1 2.1 0 0 0 2.24 2.37 3 3 0 0 0 .9-.12V32.3h1.36v3.36a6.64 6.64 0 0 1-2.41.44 3.23 3.23 0 0 1-3.56-3.46 3.64 3.64 0 0 1 3.94-3.78 7.19 7.19 0 0 1 2 .3zM78 32c-1-.2-1.44.43-1.44 1.87V36h-1.3v-5.19h1.26a6.81 6.81 0 0 1-.09 1 1.58 1.58 0 0 1 1.67-1.11zm3.24-.16a1.29 1.29 0 0 0-1.18 1.52c0 1.06.39 1.61 1.16 1.61s1.16-.53 1.16-1.58-.38-1.55-1.14-1.55m-.14 4.26c-1.47 0-2.42-.76-2.42-2.61a2.61 2.61 0 0 1 2.65-2.78c1.47 0 2.42.81 2.42 2.6a2.62 2.62 0 0 1-2.65 2.79m7.19-.1a5.57 5.57 0 0 1 .06-.92 1.88 1.88 0 0 1-1.76 1A1.44 1.44 0 0 1 85 34.45v-3.64h1.33v3.32c0 .54.15.87.65.87a1.5 1.5 0 0 0 1.2-1.68v-2.5h1.33V36h-1.22zm5.35-4.19c-.7 0-1.12.81-1.12 1.7v1.44a2.38 2.38 0 0 0 .7.09c.75 0 1.3-.48 1.3-1.76 0-1-.28-1.47-.89-1.47m-.45 4.26a4.53 4.53 0 0 1-.67 0v2.48h-1.33v-7.7h1.24a6.18 6.18 0 0 1-.05.87 1.69 1.69 0 0 1 1.63-1c1.23 0 1.9.89 1.9 2.42 0 1.8-.94 2.94-2.73 2.94"/></svg>