<?xml version="1.0" standalone="no"?>
<!DOCTYPE svg PUBLIC "-//W3C//DTD SVG 20010904//EN"
 "http://www.w3.org/TR/2001/REC-SVG-20010904/DTD/svg10.dtd">
<svg version="1.0" xmlns="http://www.w3.org/2000/svg"
 width="300.000000pt" height="185.000000pt" viewBox="0 0 300.000000 185.000000"
 preserveAspectRatio="xMidYMid meet">
<metadata>
Created by potrace 1.10, written by Peter Selinger 2001-2011
</metadata>
<g transform="translate(0.000000,185.000000) scale(0.100000,-0.100000)"
fill="#ffffff" stroke="none">
<path d="M780 1611 c0 -18 -69 -52 -156 -77 -140 -41 -222 -93 -250 -161 -16
-38 -19 -149 -4 -158 6 -4 10 10 10 36 0 40 5 47 80 120 80 79 102 84 54 14
-51 -76 -5 -130 56 -65 36 38 39 23 10 -45 -12 -28 -31 -52 -50 -63 -31 -18
-39 -32 -17 -32 25 0 113 48 138 76 36 39 77 106 85 140 l7 27 -30 -22 c-19
-14 -41 -21 -59 -19 -24 2 -29 8 -32 34 -3 34 6 44 117 126 42 31 72 78 51 78
-6 0 -10 -4 -10 -9z m-192 -156 c-13 -29 -23 -32 -32 -8 -7 17 9 33 31 33 10
0 10 -6 1 -25z m1 -67 c6 -17 4 -25 -8 -30 -36 -15 -42 -9 -26 22 19 36 23 37
34 8z m61 -64 c0 -21 -17 -17 -23 5 -3 14 -1 18 9 14 8 -3 14 -11 14 -19z"/>
<path d="M230 1113 l0 -43 73 0 72 0 -3 -190 -4 -190 66 0 66 0 0 190 0 190
74 0 74 0 -1 41 -2 40 -208 2 -207 2 0 -42z m263 0 c16 -4 15 -8 -8 -35 -25
-29 -25 -33 -24 -180 0 -115 -3 -153 -13 -159 -29 -19 -38 21 -38 176 0 140
-2 153 -20 170 -16 14 -17 20 -8 27 13 8 80 9 111 1z"/>
<path d="M700 1011 c1 -212 15 -255 100 -298 35 -18 61 -23 122 -23 87 0 137
16 181 57 39 39 47 79 47 254 l0 155 -65 0 -65 0 0 -153 c0 -174 -8 -203 -62
-222 -23 -8 -41 -8 -65 0 -55 18 -63 47 -63 222 l0 153 -65 0 -65 0 0 -145z
m90 -18 c0 -161 12 -198 80 -247 l25 -18 -34 6 c-44 8 -76 29 -98 63 -14 22
-19 53 -21 156 -2 71 -1 136 2 143 3 8 15 14 26 14 19 0 20 -6 20 -117z m318
-21 c2 -104 -1 -139 -13 -165 -19 -40 -51 -64 -94 -70 l-33 -6 35 33 c46 42
57 86 57 229 0 117 0 118 23 115 21 -3 22 -7 25 -136z"/>
<path d="M1270 921 l0 -234 121 6 c143 7 188 27 229 99 22 37 25 55 25 133 0
78 -3 96 -25 133 -14 26 -42 54 -66 68 -36 21 -55 24 -162 27 l-122 3 0 -235z
m256 149 c37 -35 54 -80 54 -145 0 -65 -17 -110 -54 -145 -24 -21 -39 -25
-107 -29 l-79 -3 0 177 0 177 79 -3 c68 -4 83 -8 107 -29z"/>
<path d="M2070 926 l0 -236 33 0 32 0 -2 232 -2 233 -30 3 -31 3 0 -235z"/>
<path d="M2302 1153 c-22 -9 -44 -63 -40 -101 3 -36 2 -37 -29 -34 -29 2 -33
-1 -33 -23 0 -22 4 -25 33 -25 l32 0 -3 -140 -4 -140 37 0 37 0 -4 140 -3 140
38 0 c33 0 37 3 37 25 0 24 -3 26 -37 23 -36 -3 -38 -1 -39 27 -2 47 12 65 51
65 31 0 35 3 35 25 0 23 -3 25 -47 24 -27 0 -54 -3 -61 -6z"/>
<path d="M2508 1093 c-13 -3 -18 -15 -18 -45 0 -39 -1 -39 -30 -33 -27 6 -30
4 -30 -19 0 -22 4 -26 30 -26 l30 0 0 -124 c0 -147 5 -156 81 -156 45 0 49 2
49 24 0 19 -4 23 -20 19 -41 -11 -50 12 -50 128 l0 109 40 0 c36 0 40 2 40 26
0 25 -2 25 -40 19 l-40 -7 0 46 c0 46 -3 49 -42 39z"/>
<path d="M1814 1019 c-17 -5 -43 -21 -57 -35 -64 -64 -62 -213 4 -268 25 -22
41 -26 90 -26 72 0 111 18 132 62 l16 33 -32 3 c-18 2 -33 -1 -35 -8 -9 -27
-44 -50 -75 -50 -42 0 -78 36 -80 80 l-2 32 113 -1 112 -2 0 38 c0 101 -91
171 -186 142z m94 -59 c12 -12 23 -27 24 -35 0 -8 1 -20 2 -26 1 -6 -30 -11
-82 -12 l-83 -2 6 25 c16 65 88 91 133 50z"/>
</g>
</svg>
